<svg width="48" height="48" viewBox="0 0 48 48" fill="none" xmlns="http://www.w3.org/2000/svg">
<path d="M32.0254 36.975C31.8004 36.975 31.5004 36.9 31.3504 36.675C30.9754 36.3 30.9754 35.625 31.3504 35.25L42.6004 24L31.2754 12.675C30.9004 12.3 30.9004 11.625 31.2754 11.25C31.6504 10.875 32.3254 10.875 32.7004 11.25L44.7004 23.25C45.0754 23.625 45.0754 24.3 44.7004 24.675L32.7004 36.675C32.4754 36.9 32.2504 36.975 32.0254 36.975Z" fill="#6364A5"/>
<path d="M15.9748 36.975C15.7498 36.975 15.4498 36.9 15.2998 36.675L3.2998 24.675C2.9248 24.3 2.9248 23.625 3.2998 23.25L15.2998 11.25C15.6748 10.875 16.3498 10.875 16.7248 11.25C17.0998 11.625 17.0998 12.3 16.7248 12.675L5.3998 24L16.7248 35.325C17.0998 35.7 17.0998 36.375 16.7248 36.75C16.4998 36.9 16.2748 36.975 15.9748 36.975Z" fill="#6364A5"/>
</svg>
