<svg width="48" height="48" viewBox="0 0 48 48" fill="none" xmlns="http://www.w3.org/2000/svg">
<path d="M36 45.0001H8.025C5.25 45.0001 3 42.7501 3 39.9751V12.0001C3 9.2251 5.25 6.9751 8.025 6.9751H22.05C22.575 6.9751 23.025 7.4251 23.025 7.9501C23.025 8.4751 22.575 9.0001 21.975 9.0001H8.025C6.375 9.0001 5.025 10.3501 5.025 12.0001V39.9751C5.025 41.6251 6.375 42.9751 8.025 42.9751H36C37.65 42.9751 39 41.6251 39 39.9751V26.0251C39 25.5001 39.45 25.0501 39.975 25.0501C40.5 25.0501 40.95 25.5001 40.95 26.0251V40.0501C41.025 42.7501 38.775 45.0001 36 45.0001Z" fill="#6364A5"/>
<path d="M15.975 33.0001C15.75 33.0001 15.45 32.9251 15.3 32.7001C15.075 32.4751 14.925 32.1001 15 31.7251L17.025 23.7001C17.1 23.5501 17.175 23.4001 17.325 23.2501L36.3 4.2751C38.325 2.2501 41.7 2.2501 43.725 4.2751C45.75 6.3001 45.75 9.6751 43.725 11.7001L24.675 30.6751C24.525 30.8251 24.375 30.9001 24.225 30.9751L16.275 33.0001C16.125 33.0001 16.05 33.0001 15.975 33.0001ZM18.9 24.5251L17.4 30.6751L23.55 29.1751L42.375 10.3501C43.65 9.0751 43.65 7.0501 42.375 5.7751C41.1 4.5001 39.075 4.5001 37.8 5.7751L18.9 24.5251Z" fill="#6364A5"/>
</svg>
