<svg width="48" height="48" viewBox="0 0 48 48" fill="none" xmlns="http://www.w3.org/2000/svg">
<path d="M42.0004 36.9749C41.4754 36.9749 41.0254 36.5249 41.0254 35.9999V23.9999C41.0254 14.6249 33.3754 6.9749 24.0004 6.9749C14.6254 6.9749 6.97539 14.6249 6.97539 23.9999V35.9999C6.97539 36.5249 6.52539 36.9749 6.00039 36.9749C5.47539 36.9749 5.02539 36.5249 5.02539 35.9999V23.9999C5.02539 13.4999 13.5004 5.0249 24.0004 5.0249C34.5004 5.0249 42.9754 13.4999 42.9754 23.9999V35.9999C42.9754 36.5249 42.5254 36.9749 42.0004 36.9749Z" fill="#6364A5"/>
<path d="M38.0252 42.9748H36.0002C33.2252 42.9748 30.9752 40.7248 30.9752 37.9498V31.9498C30.9752 29.1748 33.2252 26.9248 36.0002 26.9248H42.0002C42.5252 26.9248 42.9752 27.3748 42.9752 27.8998V37.8748C42.9752 40.7248 40.7252 42.9748 38.0252 42.9748ZM36.0002 29.0248C34.3502 29.0248 33.0002 30.3748 33.0002 32.0248V38.0248C33.0002 39.6748 34.3502 41.0248 36.0002 41.0248H38.0252C39.6752 41.0248 41.0252 39.6748 41.0252 38.0248V29.0248H36.0002ZM12.0002 42.9748H9.9752C7.2002 42.9748 4.9502 40.7248 4.9502 37.9498V27.9748C5.0252 27.4498 5.4752 26.9998 6.0002 26.9998H12.0002C14.7752 26.9998 17.0252 29.2498 17.0252 32.0248V38.0248C17.0252 40.7248 14.7752 42.9748 12.0002 42.9748ZM6.9752 29.0248V38.0248C6.9752 39.6748 8.3252 41.0248 9.9752 41.0248H12.0002C13.6502 41.0248 15.0002 39.6748 15.0002 38.0248V32.0248C15.0002 30.3748 13.6502 29.0248 12.0002 29.0248H6.9752Z" fill="#6364A5"/>
</svg>
