<svg width="48" height="48" viewBox="0 0 48 48" fill="none" xmlns="http://www.w3.org/2000/svg">
<path d="M24 45.0001C21.225 45.0001 18.45 44.4751 15.825 43.3501C5.175 38.8501 0.150001 26.4751 4.65 15.8251C6.75 10.8751 10.65 6.90006 15.6 4.72506C16.125 4.50006 16.725 4.72506 16.95 5.25006C17.175 5.77506 16.95 6.37506 16.425 6.60006C11.925 8.55006 8.4 12.0751 6.525 16.6501C2.4 26.2501 6.975 37.4251 16.575 41.4751C21.225 43.4251 26.4 43.5001 31.125 41.5501C35.85 39.6751 39.525 36.0001 41.475 31.3501C41.7 30.8251 42.3 30.6001 42.75 30.8251C43.275 31.0501 43.5 31.6501 43.275 32.1001C41.1 37.2751 37.05 41.2501 31.8 43.3501C29.325 44.4751 26.7 45.0001 24 45.0001Z" fill="#6364A5"/>
<path d="M44.025 24.975H24C23.475 24.975 23.025 24.525 23.025 24V3.975C23.025 3.45 23.475 3 24 3C35.55 3 45 12.45 45 24C45 24.525 44.55 24.975 44.025 24.975ZM24.975 23.025H42.975C42.45 13.35 34.65 5.55 24.975 5.025V23.025Z" fill="#6364A5"/>
</svg>
