<svg width="48" height="48" viewBox="0 0 48 48" fill="none" xmlns="http://www.w3.org/2000/svg">
<path d="M33.975 45H14.025C11.25 45 9 42.75 9 39.975V8.025C9 5.25 11.25 3 14.025 3H34.05C36.75 3 39 5.25 39 8.025V40.05C39 42.75 36.75 45 33.975 45ZM14.025 5.025C12.375 5.025 11.025 6.375 11.025 8.025V40.05C11.025 41.7 12.375 43.05 14.025 43.05H34.05C35.7 43.05 37.05 41.7 37.05 40.05V8.025C37.05 6.375 35.7 5.025 34.05 5.025H14.025Z" fill="#6364A5"/>
<path d="M24.0004 36.9749C23.4754 36.9749 23.0254 36.5249 23.0254 35.9999C23.0254 35.4749 23.4754 35.0249 24.0004 35.0249C24.5254 35.0249 24.9754 35.4749 24.9754 35.9999C24.9754 36.5249 24.6004 36.9749 24.0004 36.9749Z" fill="#6364A5"/>
</svg>
