<svg width="48" height="48" viewBox="0 0 48 48" fill="none" xmlns="http://www.w3.org/2000/svg">
<path d="M2.02501 36.975C1.80001 36.975 1.50001 36.9 1.35001 36.675C0.975006 36.3 0.975006 35.625 1.35001 35.25L16.35 20.25C16.725 19.875 17.4 19.875 17.775 20.25L27 29.55L45.3 11.25C45.675 10.875 46.35 10.875 46.725 11.25C47.1 11.625 47.1 12.3 46.725 12.675L27.675 31.725C27.3 32.1 26.625 32.1 26.25 31.725L17.025 22.425L2.70001 36.675C2.47501 36.9 2.25001 36.975 2.02501 36.975Z" fill="#6364A5"/>
<path d="M45.975 24.9749C45.45 24.9749 45 24.5249 45 23.9999V12.9749H33.975C33.45 12.9749 33 12.5249 33 11.9999C33 11.4749 33.45 11.0249 33.975 11.0249H45.975C46.5 11.0249 46.95 11.4749 46.95 11.9999V23.9999C47.025 24.5249 46.575 24.9749 45.975 24.9749Z" fill="#6364A5"/>
</svg>
